<svg width="24" height="25" viewBox="0 0 24 25" fill="none" xmlns="http://www.w3.org/2000/svg">
<path fill-rule="evenodd" clip-rule="evenodd" d="M12.2502 10.0624C10.6278 10.0624 9.31262 11.3776 9.31262 12.9999C9.31262 14.6223 10.6278 15.9375 12.2502 15.9375C13.8725 15.9375 15.1877 14.6223 15.1877 12.9999C15.1877 11.3776 13.8725 10.0624 12.2502 10.0624ZM7.81262 12.9999C7.81262 10.5491 9.79938 8.56238 12.2502 8.56238C14.701 8.56238 16.6877 10.5491 16.6877 12.9999C16.6877 15.4507 14.701 17.4375 12.2502 17.4375C9.79938 17.4375 7.81262 15.4507 7.81262 12.9999Z" fill="#9A9A9A"/>
<path fill-rule="evenodd" clip-rule="evenodd" d="M9.90082 2.84662L12.2506 4.69548L14.6004 2.84662L19.8696 5.88879L19.4434 8.84807L22.2177 9.95793V16.0423L19.4424 17.1525L19.8686 20.1112L14.5994 23.1534L12.2506 21.3054L9.90191 23.1534L4.63272 20.1112L5.0588 17.153L2.28223 16.0423V9.95793L5.0578 8.84756L4.63163 5.88879L9.90082 2.84662ZM6.26109 6.68007L6.71073 9.80189L3.78223 10.9734V15.0268L6.71173 16.1987L6.26217 19.32L9.77245 21.3466L12.2506 19.3967L14.7288 21.3466L18.2391 19.32L17.7895 16.1982L20.7177 15.0268V10.9734L17.7905 9.8024L18.2402 6.68007L14.7299 4.65341L12.2506 6.60413L9.77137 4.65341L6.26109 6.68007Z" fill="#9A9A9A"/>
</svg>
