<svg width="35" height="35" viewBox="0 0 35 35" fill="none" xmlns="http://www.w3.org/2000/svg">
<path d="M17.4465 0C7.81125 0 0 7.81104 0 17.4462C0 27.0819 7.81125 34.8923 17.4465 34.8923C27.0827 34.8923 34.8931 27.0819 34.8931 17.4462C34.8931 7.81167 27.0827 0.000833329 17.4463 0.000833329L17.4465 0ZM25.4473 25.1625C25.1348 25.675 24.464 25.8375 23.9515 25.5229C19.8552 23.0208 14.6985 22.4542 8.62562 23.8417C8.04042 23.975 7.45708 23.6083 7.32375 23.0229C7.18979 22.4375 7.555 21.8542 8.14167 21.7208C14.7875 20.2019 20.4881 20.8562 25.0869 23.6667C25.5994 23.9812 25.7619 24.65 25.4473 25.1625ZM27.5827 20.4115C27.189 21.0521 26.3515 21.2542 25.7119 20.8604C21.0223 17.9773 13.8737 17.1425 8.32687 18.8262C7.6075 19.0435 6.84771 18.6381 6.62937 17.92C6.41271 17.2006 6.81833 16.4423 7.53646 16.2235C13.8725 14.301 21.7494 15.2323 27.1348 18.5417C27.7744 18.9354 27.9765 19.7727 27.5827 20.4115ZM27.766 15.4648C22.1431 12.125 12.866 11.8179 7.4975 13.4473C6.63542 13.7087 5.72375 13.2221 5.4625 12.36C5.20125 11.4975 5.6875 10.5865 6.55021 10.3244C12.7129 8.45354 22.9577 8.815 29.4315 12.6581C30.2085 13.1183 30.4627 14.1198 30.0023 14.8942C29.544 15.6696 28.5398 15.9252 27.7669 15.4648H27.766Z" fill="#1ED760"/>
</svg>
