<svg width="24" height="25" viewBox="0 0 24 25" fill="none" xmlns="http://www.w3.org/2000/svg">
<path fill-rule="evenodd" clip-rule="evenodd" d="M12.25 4.5C7.55521 4.5 3.75 8.30521 3.75 13C3.75 17.6948 7.55521 21.5 12.25 21.5C16.9448 21.5 20.75 17.6948 20.75 13C20.75 8.30521 16.9448 4.5 12.25 4.5ZM2.25 13C2.25 7.47679 6.72679 3 12.25 3C17.7732 3 22.25 7.47679 22.25 13C22.25 18.5232 17.7732 23 12.25 23C6.72679 23 2.25 18.5232 2.25 13Z" fill="#9A9A9A"/>
<path fill-rule="evenodd" clip-rule="evenodd" d="M12.6621 8.09619V13.2673L16.7104 15.6823L15.942 16.9705L11.1621 14.1191V8.09619H12.6621Z" fill="#9A9A9A"/>
</svg>
