<svg width="358" height="185" viewBox="0 0 358 185" fill="none" xmlns="http://www.w3.org/2000/svg">
<path d="M0 0L179 12L358 0V155C358 171.569 344.569 185 328 185H30C13.4315 185 0 171.569 0 155V0Z" fill="#0293E4"/>
<path d="M0 0L179 12L358 0V155C358 171.569 344.569 185 328 185H30C13.4315 185 0 171.569 0 155V0Z" fill="url(#paint0_linear_0_556)" fill-opacity="0.1"/>
<path d="M0 0L179 12L358 0V155C358 171.569 344.569 185 328 185H30C13.4315 185 0 171.569 0 155V0Z" fill="url(#paint1_linear_0_556)" fill-opacity="0.1"/>
<path d="M104.416 7L106.405 7.13281V7.13379L106.372 7.63184L108.361 7.76562L108.394 7.2666L110.384 7.39941V7.40039L110.35 7.89844L112.339 8.03223L112.371 7.5332L114.361 7.66602V7.66699L114.328 8.16602L116.316 8.29883L116.349 7.7998L118.339 7.93262V7.93359L118.306 8.43262L120.294 8.56543L120.327 8.06641L122.316 8.19922V8.2002L122.283 8.69922L124.272 8.83203L124.305 8.33301L126.294 8.46582V8.4668L126.261 8.96582L128.25 9.09863L128.282 8.59961L130.272 8.73242V8.7334L130.238 9.23242L132.228 9.36523L132.26 8.86621L134.25 9L134.217 9.49902L136.205 9.63184L136.239 9.13379V9.13281L138.227 9.2666L138.194 9.76562L140.184 9.89844L140.217 9.40039V9.39941L142.204 9.5332L142.172 10.0322L144.161 10.166L144.194 9.66699V9.66602L146.183 9.7998L146.149 10.2988L148.139 10.4326L148.172 9.93359V9.93262L150.16 10.0664L150.128 10.5654L152.116 10.6992L152.15 10.2002V10.1992L154.138 10.333L154.105 10.832L156.095 10.9658L156.128 10.4668V10.4658L158.115 10.5996L158.083 11.0986L160.072 11.2324L160.105 10.7334V10.7324L162.094 10.8662L162.061 11.3652L164.05 11.499L164.083 11V10.999L166.072 11.1328V11.1338L166.039 11.6318L168.027 11.7656L168.061 11.2666L170.05 11.3994V11.4004L170.017 11.8984L172.006 12.0322L172.038 11.5332L174.027 11.666V11.667L173.994 12.166L175.983 12.2988L176.016 11.7998L178.006 11.9326V11.9336L177.972 12.4326L178.967 12.499L179 12.501L179.033 12.499L180.028 12.4326L179.994 11.9336L179.993 11.9326L181.983 11.7998L182.017 12.2988L184.006 12.166L183.973 11.667L183.972 11.666L185.961 11.5332L185.994 12.0322L187.983 11.8984L187.95 11.4004L187.949 11.3994L189.938 11.2666L189.973 11.7656L191.961 11.6318L191.928 11.1338L191.927 11.1328L193.916 10.999L193.917 11L193.95 11.499L195.939 11.3652L195.905 10.8662L197.894 10.7324L197.895 10.7334L197.928 11.2324L199.917 11.0986L199.884 10.5996L201.871 10.4658L201.872 10.4668L201.905 10.9658L203.895 10.832L203.861 10.333L205.849 10.1992L205.85 10.2002L205.884 10.6992L207.872 10.5654L207.839 10.0664L209.827 9.93262L209.828 9.93359L209.861 10.4326L211.85 10.2988L211.816 9.7998L213.805 9.66602L213.806 9.66699L213.839 10.166L215.828 10.0322L215.794 9.5332L217.782 9.39941L217.783 9.40039L217.816 9.89844L219.806 9.76562L219.772 9.2666L221.76 9.13281L221.761 9.13379L221.795 9.63184L223.783 9.49902L223.75 9L225.739 8.86621L225.772 9.36523L227.761 9.23242L227.728 8.7334L227.727 8.73242L229.717 8.59961L229.75 9.09863L231.739 8.96582L231.705 8.4668L231.704 8.46582L233.694 8.33301L233.728 8.83203L235.717 8.69922L235.684 8.2002L235.683 8.19922L237.672 8.06641L237.706 8.56543L239.694 8.43262L239.661 7.93359L239.66 7.93262L241.65 7.7998L241.684 8.29883L243.672 8.16602L243.639 7.66699L243.638 7.66602L245.628 7.5332L245.661 8.03223L247.65 7.89844L247.616 7.40039L247.615 7.39941L249.605 7.2666L249.639 7.76562L251.628 7.63184L251.595 7.13379L251.594 7.13281L253.583 7L253.617 7.49902L255.605 7.36523L255.572 6.86621L257.561 6.73242L257.562 6.7334L257.595 7.23242L259.583 7.09863L259.55 6.59961L261.538 6.46582L261.539 6.4668L261.572 6.96582L263.562 6.83203L263.527 6.33301L265.516 6.19922L265.517 6.2002L265.55 6.69922L267.539 6.56543L267.506 6.06641L269.493 5.93262L269.494 5.93359L269.528 6.43262L271.517 6.29883L271.483 5.7998L273.472 5.66602L273.473 5.66699L273.506 6.16602L275.494 6.03223L275.461 5.5332L277.449 5.39941L277.45 5.40039L277.483 5.89844L279.473 5.76562L279.438 5.2666L281.427 5.13281L281.428 5.13379L281.461 5.63184L283.45 5.49902L283.417 5L283.416 4.99902L285.405 4.86621L285.439 5.36523L287.428 5.23242L287.395 4.7334L287.394 4.73242L289.384 4.59961L289.417 5.09863L291.405 4.96582L291.372 4.4668L291.371 4.46582L293.361 4.33301L293.395 4.83203L295.384 4.69922L295.35 4.2002L295.349 4.19922L297.339 4.06641L297.372 4.56543L299.361 4.43262L299.328 3.93359L299.327 3.93262L301.316 3.7998L301.35 4.29883L303.339 4.16602L303.306 3.66699L303.305 3.66602L305.294 3.5332L305.328 4.03223L307.316 3.89844L307.283 3.40039L307.282 3.39941L309.272 3.2666L309.306 3.76562L311.295 3.63184L311.261 3.13379L311.26 3.13281L313.25 3L313.283 3.49902L315.272 3.36523L315.239 2.86621L317.227 2.73242L317.228 2.7334L317.261 3.23242L319.25 3.09863L319.217 2.59961L321.204 2.46582L321.205 2.4668L321.239 2.96582L323.228 2.83203L323.194 2.33301L325.183 2.19922L325.184 2.2002L325.217 2.69922L327.206 2.56543L327.172 2.06641L329.16 1.93262L329.161 1.93359L329.194 2.43262L331.184 2.29883L331.15 1.7998L333.138 1.66602L333.139 1.66699L333.172 2.16602L335.161 2.03223L335.128 1.5332L337.115 1.39941L337.116 1.40039L337.15 1.89844L339.139 1.76562L339.105 1.2666L341.094 1.13281L341.095 1.13379L341.128 1.63184L343.117 1.49902L343.083 1L345.072 0.866211L345.105 1.36523L347.095 1.23242L347.062 0.733398L347.061 0.732422L349.05 0.599609L349.083 1.09863L351.072 0.96582L351.039 0.466797L351.038 0.46582L353.027 0.333008L353.062 0.832031L355.05 0.699219L355.017 0.200195L355.016 0.199219L357.006 0.0664062L357.039 0.56543L357.5 0.53418V0.993164H358V2.98047H357.5V4.96777H358V6.95508H357.5V8.94238H358V10.9297H357.5V12.917H358V14.9033H357.5V16.8906H358V18.8779H357.5V20.8652H358V22.8525H357.5V24.8398H358V26.8271H357.5V28.8145H358V30.8008H357.5V32.7881H358V34.7754H357.5V36.7627H358V38.75H357.5V40.7373H358V42.7246H357.5V44.7119H358V46.6982H357.5V48.6855H358V50.6729H357.5V52.6602H358V54.6475H357.5V56.6348H358V58.6221H357.5V60.6094H358V62.5957H357.5V64.583H358V66.5703H357.5V68.5576H358V70.5449H357.5V72.5322H358V74.5195H357.5V76.5068H358V78.4932H357.5V80.4805H358V82.4678H357.5V84.4551H358V86.4424H357.5V88.4297H358V90.417H357.5V92.4043H358V94.3906H357.5V96.3779H358V98.3652H357.5V100.353H358V102.34H357.5V104.327H358V106.314H357.5V108.302H358V110.288H357.5V112.275H358V114.263H357.5V116.25H358V118.237H357.5V120.225H358V122.212H357.5V124.198H358V126.186H357.5V128.173H358V130.16H357.5V132.147H358V134.135H357.5V136.122H358V138.109H357.5V140.096H358V142.083H357.5V144.07H358V146.058H357.5V148.045H358V150.032H357.5V152.02H358V154.007H357.5V155C357.5 155.324 357.495 155.647 357.484 155.968L357.981 155.982C357.96 156.641 357.918 157.294 357.855 157.94L357.36 157.894C357.298 158.538 357.214 159.177 357.11 159.809L357.601 159.888C357.494 160.537 357.369 161.18 357.222 161.814L356.735 161.702C356.589 162.331 356.423 162.953 356.237 163.566L356.713 163.711C356.522 164.339 356.312 164.959 356.082 165.569L355.617 165.395C355.39 165.999 355.142 166.593 354.877 167.178L355.331 167.384C355.06 167.981 354.769 168.568 354.461 169.144L354.022 168.908C353.718 169.476 353.395 170.034 353.056 170.579L353.478 170.842C353.131 171.398 352.767 171.942 352.386 172.474L351.981 172.184C351.606 172.707 351.213 173.218 350.805 173.715L351.19 174.031C350.775 174.537 350.342 175.028 349.895 175.506L349.531 175.166C349.091 175.636 348.636 176.091 348.166 176.531L348.506 176.895C348.028 177.342 347.537 177.775 347.031 178.19L346.715 177.805C346.218 178.213 345.707 178.606 345.184 178.981L345.474 179.386C344.942 179.767 344.398 180.131 343.842 180.478L343.579 180.056C343.034 180.395 342.476 180.718 341.908 181.022L342.144 181.461C341.568 181.769 340.981 182.06 340.384 182.331L340.178 181.877C339.593 182.142 338.999 182.39 338.395 182.617L338.569 183.082C337.959 183.312 337.339 183.522 336.711 183.713L336.566 183.237C335.953 183.423 335.331 183.589 334.702 183.735L334.814 184.222C334.18 184.369 333.537 184.494 332.888 184.601L332.809 184.11C332.177 184.214 331.538 184.298 330.894 184.36L330.94 184.855C330.294 184.918 329.641 184.96 328.982 184.981L328.968 184.484C328.647 184.495 328.324 184.5 328 184.5H327.007V185H325.02V184.5H323.033V185H321.047V184.5H319.06V185H317.073V184.5H315.086V185H313.1V184.5H311.113V185H309.126V184.5H307.14V185H305.153V184.5H303.166V185H301.18V184.5H299.193V185H297.206V184.5H295.22V185H293.233V184.5H291.246V185H289.26V184.5H287.273V185H285.286V184.5H283.3V185H281.313V184.5H279.326V185H277.34V184.5H275.354V185H273.366V184.5H271.38V185H269.394V184.5H267.406V185H265.42V184.5H263.434V185H261.446V184.5H259.46V185H257.473V184.5H255.486V185H253.5V184.5H251.513V185H249.526V184.5H247.54V185H245.553V184.5H243.566V185H241.58V184.5H239.593V185H237.606V184.5H235.62V185H233.633V184.5H231.646V185H229.66V184.5H227.673V185H225.687V184.5H223.7V185H221.713V184.5H219.727V185H217.74V184.5H215.753V185H213.767V184.5H211.78V185H209.793V184.5H207.807V185H205.82V184.5H203.833V185H201.847V184.5H199.86V185H197.873V184.5H195.887V185H193.899V184.5H191.913V185H189.927V184.5H187.939V185H185.953V184.5H183.967V185H181.979V184.5H179.993V185H178.007V184.5H176.02V185H174.033V184.5H172.047V185H170.06V184.5H168.073V185H166.087V184.5H164.1V185H162.113V184.5H160.127V185H158.14V184.5H156.153V185H154.167V184.5H152.18V185H150.193V184.5H148.207V185H146.22V184.5H144.233V185H142.247V184.5H140.26V185H138.273V184.5H136.287V185H134.3V184.5H132.313V185H130.326V184.5H128.34V185H126.354V184.5H124.366V185H122.38V184.5H120.394V185H118.406V184.5H116.42V185H114.434V184.5H112.446V185H110.46V184.5H108.474V185H106.486V184.5H104.5V185H102.514V184.5H100.526V185H98.54V184.5H96.5537V185H94.5664V184.5H92.5801V185H90.5938V184.5H88.6064V185H86.6201V184.5H84.6338V185H82.6465V184.5H80.6602V185H78.6738V184.5H76.6865V185H74.7002V184.5H72.7129V185H70.7266V184.5H68.7402V185H66.7529V184.5H64.7666V185H62.7803V184.5H60.793V185H58.8066V184.5H56.8203V185H54.833V184.5H52.8467V185H50.8604V184.5H48.873V185H46.8867V184.5H44.9004V185H42.9131V184.5H40.9268V185H38.9404V184.5H36.9531V185H34.9668V184.5H32.9805V185H30.9932V184.5H30C29.6762 184.5 29.3535 184.495 29.0322 184.484L29.0166 184.981C28.3583 184.96 27.7055 184.918 27.0586 184.855L27.1064 184.36C26.4619 184.298 25.8231 184.214 25.1914 184.11L25.1113 184.601C24.4619 184.494 23.8192 184.369 23.1846 184.222L23.2979 183.735C22.6685 183.589 22.0468 183.423 21.4336 183.237L21.2881 183.713C20.6596 183.522 20.04 183.312 19.4297 183.082L19.6055 182.617C19.0013 182.39 18.4068 182.142 17.8223 181.877L17.6152 182.331C17.0178 182.06 16.4312 181.769 15.8555 181.461L16.0918 181.022C15.5235 180.718 14.9662 180.395 14.4209 180.056L14.1572 180.478C13.6009 180.131 13.0566 179.767 12.5254 179.386L12.8164 178.981C12.2931 178.606 11.7821 178.213 11.2852 177.805L10.9678 178.19C10.4618 177.775 9.97062 177.342 9.49316 176.895L9.83398 176.531C9.36424 176.091 8.90889 175.636 8.46875 175.166L8.10449 175.506C7.65714 175.028 7.22427 174.537 6.80859 174.031L7.19531 173.715C6.787 173.218 6.39422 172.707 6.01855 172.184L5.61328 172.474C5.232 171.942 4.86813 171.398 4.52148 170.842L4.94434 170.579C4.60456 170.034 4.28192 169.476 3.97754 168.908L3.53809 169.144C3.22972 168.568 2.93908 167.981 2.66797 167.384L3.12305 167.178C2.85778 166.593 2.61031 165.999 2.38281 165.395L1.91699 165.569C1.68718 164.959 1.47655 164.339 1.28613 163.711L1.7627 163.566C1.57693 162.953 1.41085 162.331 1.26465 161.702L0.777344 161.814C0.629936 161.18 0.504853 160.537 0.398438 159.888L0.889648 159.809C0.786118 159.177 0.702384 158.538 0.639648 157.894L0.143555 157.94C0.0806223 157.294 0.0387582 156.641 0.0175781 155.982L0.515625 155.968C0.505275 155.647 0.5 155.324 0.5 155V154.007H0V152.02H0.5V150.032H0V148.045H0.5V146.058H0V144.07H0.5V142.083H0V140.097H0.5V138.109H0V136.122H0.5V134.135H0V132.147H0.5V130.16H0V128.173H0.5V126.186H0V124.199H0.5V122.212H0V120.225H0.5V118.237H0V116.25H0.5V114.263H0V112.275H0.5V110.288H0V108.302H0.5V106.314H0V104.327H0.5V102.34H0V100.353H0.5V98.3652H0V96.3779H0.5V94.3906H0V92.4043H0.5V90.417H0V88.4297H0.5V86.4424H0V84.4551H0.5V82.4678H0V80.4805H0.5V78.4932H0V76.5068H0.5V74.5195H0V72.5322H0.5V70.5449H0V68.5576H0.5V66.5703H0V64.583H0.5V62.5957H0V60.6094H0.5V58.6221H0V56.6348H0.5V54.6475H0V52.6602H0.5V50.6729H0V48.6855H0.5V46.6982H0V44.7119H0.5V42.7246H0V40.7373H0.5V38.75H0V36.7627H0.5V34.7754H0V32.7881H0.5V30.8018H0V28.8145H0.5V26.8271H0V24.8398H0.5V22.8525H0V20.8652H0.5V18.8779H0V16.8906H0.5V14.9043H0V12.917H0.5V10.9297H0V8.94238H0.5V6.95508H0V4.96777H0.5V2.98047H0V0.993164H0.5V0.53418L0.960938 0.56543L0.993164 0.0664062L2.9834 0.199219V0.200195L2.9502 0.699219L4.93848 0.832031L4.97168 0.333008L6.96094 0.46582V0.466797L6.92773 0.96582L8.91699 1.09863L8.94922 0.599609L10.9385 0.732422V0.733398L10.9053 1.23242L12.8945 1.36523L12.9268 0.866211L14.916 1H14.917L14.8828 1.49902L16.8721 1.63184L16.9053 1.13379V1.13281L18.8936 1.2666L18.8613 1.76562L20.8496 1.89844L20.8838 1.40039V1.39941L22.8711 1.5332L22.8389 2.03223L24.8281 2.16602L24.8613 1.66699V1.66602L26.8486 1.7998L26.8164 2.29883L28.8057 2.43262L28.8389 1.93359V1.93262L30.8271 2.06641L30.7939 2.56543L32.7832 2.69922L32.8164 2.2002V2.19922L34.8047 2.33301L34.7725 2.83203L36.7607 2.96582L36.7939 2.4668V2.46582L38.7822 2.59961L38.75 3.09863L40.7383 3.23242L40.7725 2.7334V2.73242L42.7598 2.86621L42.7275 3.36523L44.7168 3.49902L44.75 3L46.7393 3.13281V3.13379L46.7051 3.63184L48.6943 3.76562L48.7266 3.2666L50.7168 3.39941V3.40039L50.6836 3.89844L52.6719 4.03223L52.7041 3.5332L54.6943 3.66602V3.66699L54.6611 4.16602L56.6494 4.29883L56.6826 3.7998L58.6719 3.93262V3.93359L58.6387 4.43262L60.6279 4.56543L60.6602 4.06641L62.6504 4.19922V4.2002L62.6162 4.69922L64.6055 4.83203L64.6377 4.33301L66.6279 4.46582V4.4668L66.5947 4.96582L68.583 5.09863L68.6152 4.59961L70.6055 4.73242V4.7334L70.5723 5.23242L72.5605 5.36523L72.5938 4.86621L74.583 4.99902V5L74.5498 5.49902L76.5391 5.63184L76.5723 5.13379V5.13281L78.5605 5.2666L78.5273 5.76562L80.5166 5.89844L80.5498 5.40039V5.39941L82.5381 5.5332L82.5059 6.03223L84.4941 6.16602L84.5273 5.66699V5.66602L86.5156 5.7998L86.4834 6.29883L88.4717 6.43262L88.5059 5.93359V5.93262L90.4932 6.06641L90.4609 6.56543L92.4502 6.69922L92.4834 6.2002V6.19922L94.4717 6.33301L94.4385 6.83203L96.4277 6.96582L96.4609 6.4668V6.46582L98.4492 6.59961L98.417 7.09863L100.405 7.23242L100.438 6.7334V6.73242L102.427 6.86621L102.395 7.36523L104.383 7.49902L104.416 7Z" stroke="#F5F5F5" stroke-opacity="0.54" stroke-dasharray="2 2"/>
<defs>
<linearGradient id="paint0_linear_0_556" x1="22.5" y1="54.5" x2="6.5" y2="55" gradientUnits="userSpaceOnUse">
<stop stop-color="#016399"/>
<stop offset="1"/>
</linearGradient>
<linearGradient id="paint1_linear_0_556" x1="328.5" y1="84" x2="346.5" y2="84" gradientUnits="userSpaceOnUse">
<stop stop-color="#016399"/>
<stop offset="1"/>
</linearGradient>
</defs>
</svg>
